<svg width="512" height="512" viewBox="0 0 100 100" fill="none" xmlns="http://www.w3.org/2000/svg">
<path d="M22 18 Q22 13 27 13 L73 13 Q78 13 78 18 L78 50 Q78 71 50 87 Q22 71 22 50 Z" fill="#0055B8"></path>
<g stroke="#FFFFFF" stroke-width="3" stroke-linecap="round" stroke-linejoin="round" fill="none">
  <path d="M28 50 H44"></path><polyline points="39,46 44,50 39,54"></polyline>
</g>
<rect x="47.5" y="33" width="5" height="34" rx="2.5" fill="#FFFFFF"></rect>
<g stroke="#FB8500" stroke-width="4.5" stroke-linecap="round" stroke-linejoin="round" fill="none">
  <path d="M53 40 H69"></path><polyline points="64,36 69,40 64,44"></polyline>
  <path d="M53 50 H69"></path><polyline points="64,46 69,50 64,54"></polyline>
  <path d="M53 60 H69"></path><polyline points="64,56 69,60 64,64"></polyline>
</g>
</svg>